<mxfile host="app.diagrams.net" modified="2022-10-06T17:37:30.543Z" agent="5.0 (Windows NT 10.0; Win64; x64) AppleWebKit/537.36 (KHTML, like Gecko) Chrome/106.0.0.0 Safari/537.36 Edg/106.0.1370.34" etag="5D5piNuT9GTYkk3gIJP_" version="20.4.0" type="github">
  <diagram name="Page-1" id="2cc2dc42-3aac-f2a9-1cec-7a8b7cbee084">
    <mxGraphModel dx="1420" dy="789" grid="1" gridSize="10" guides="1" tooltips="1" connect="1" arrows="1" fold="1" page="1" pageScale="1" pageWidth="1100" pageHeight="850" background="none" math="0" shadow="0">
      <root>
        <mxCell id="0" />
        <mxCell id="1" parent="0" />
        <mxCell id="c4qhaEigQeH4QyrQK3di-1" value="&lt;span style=&quot;color: rgba(0, 0, 0, 0); font-family: monospace; font-size: 0px;&quot;&gt;%3CmxGraphModel%3E%3Croot%3E%3CmxCell%20id%3D%220%22%2F%3E%3CmxCell%20id%3D%221%22%20parent%3D%220%22%2F%3E%3CmxCell%20id%3D%222%22%20value%3D%22Price%22%20style%3D%22text%3Bhtml%3D1%3Balign%3Dcenter%3BverticalAlign%3Dmiddle%3Bresizable%3D0%3Bpoints%3D%5B%5D%3Bautosize%3D1%3BstrokeColor%3Dnone%3BfillColor%3Dnone%3BfontSize%3D20%3B%22%20vertex%3D%221%22%20parent%3D%221%22%3E%3CmxGeometry%20x%3D%22770%22%20y%3D%22780%22%20width%3D%2270%22%20height%3D%2240%22%20as%3D%22geometry%22%2F%3E%3C%2FmxCell%3E%3C%2Froot%3E%3C%2FmxGraphModel%3E&lt;/span&gt;" style="strokeWidth=1;shadow=0;dashed=0;align=left;html=1;shape=mxgraph.mockup.containers.browserWindow;rSize=0;strokeColor=#666666;mainText=,;recursiveResize=0;rounded=0;labelBackgroundColor=none;fontFamily=Verdana;fontSize=12" parent="1" vertex="1">
          <mxGeometry x="30" y="20" width="1350" height="1275" as="geometry" />
        </mxCell>
        <mxCell id="c4qhaEigQeH4QyrQK3di-2" value="Page 1" style="strokeWidth=1;shadow=0;dashed=0;align=center;html=1;shape=mxgraph.mockup.containers.anchor;fontSize=17;fontColor=#666666;align=left;" parent="c4qhaEigQeH4QyrQK3di-1" vertex="1">
          <mxGeometry x="60" y="12" width="110" height="26" as="geometry" />
        </mxCell>
        <mxCell id="c4qhaEigQeH4QyrQK3di-3" value="https://www.AutoQuotes.com" style="strokeWidth=1;shadow=0;dashed=0;align=center;html=1;shape=mxgraph.mockup.containers.anchor;rSize=0;fontSize=17;fontColor=#666666;align=left;" parent="c4qhaEigQeH4QyrQK3di-1" vertex="1">
          <mxGeometry x="130" y="60" width="250" height="26" as="geometry" />
        </mxCell>
        <mxCell id="c4qhaEigQeH4QyrQK3di-4" value="&lt;font style=&quot;font-size: 32px;&quot;&gt;Mechanic Shop Logo&lt;/font&gt;" style="text;html=1;points=[];align=left;verticalAlign=top;spacingTop=-4;fontSize=30;fontFamily=Verdana" parent="c4qhaEigQeH4QyrQK3di-1" vertex="1">
          <mxGeometry x="30" y="140" width="340" height="50" as="geometry" />
        </mxCell>
        <mxCell id="c4qhaEigQeH4QyrQK3di-5" value="" style="verticalLabelPosition=bottom;shadow=0;dashed=0;align=center;html=1;verticalAlign=top;strokeWidth=1;shape=mxgraph.mockup.markup.line;strokeColor=#999999;rounded=0;labelBackgroundColor=none;fillColor=#ffffff;fontFamily=Verdana;fontSize=12;fontColor=#000000;" parent="c4qhaEigQeH4QyrQK3di-1" vertex="1">
          <mxGeometry y="190" width="1290" height="20" as="geometry" />
        </mxCell>
        <mxCell id="c4qhaEigQeH4QyrQK3di-6" value="" style="verticalLabelPosition=bottom;shadow=0;dashed=0;align=center;html=1;verticalAlign=top;strokeWidth=1;shape=mxgraph.mockup.markup.line;strokeColor=#999999;rounded=0;labelBackgroundColor=none;fillColor=#ffffff;fontFamily=Verdana;fontSize=12;fontColor=#000000;" parent="c4qhaEigQeH4QyrQK3di-1" vertex="1">
          <mxGeometry y="1090" width="1350" height="20" as="geometry" />
        </mxCell>
        <mxCell id="c4qhaEigQeH4QyrQK3di-26" value="Option 1" style="strokeWidth=1;shadow=0;dashed=0;align=center;html=1;shape=mxgraph.mockup.forms.comboBox;strokeColor=#999999;fillColor=#ddeeff;align=left;fillColor2=#aaddff;mainText=;fontColor=#666666;fontSize=17;spacingLeft=3;" parent="c4qhaEigQeH4QyrQK3di-1" vertex="1">
          <mxGeometry x="130" y="270" width="140" height="40" as="geometry" />
        </mxCell>
        <mxCell id="c4qhaEigQeH4QyrQK3di-27" value="&lt;font style=&quot;font-size: 22px;&quot;&gt;Vehicle Specifications&lt;/font&gt;" style="text;html=1;align=center;verticalAlign=middle;resizable=0;points=[];autosize=1;strokeColor=none;fillColor=none;" parent="c4qhaEigQeH4QyrQK3di-1" vertex="1">
          <mxGeometry x="30" y="220" width="240" height="40" as="geometry" />
        </mxCell>
        <mxCell id="c4qhaEigQeH4QyrQK3di-28" value="&lt;font style=&quot;font-size: 18px;&quot;&gt;Make&lt;/font&gt;" style="text;html=1;align=center;verticalAlign=middle;resizable=0;points=[];autosize=1;strokeColor=none;fillColor=none;fontSize=22;" parent="c4qhaEigQeH4QyrQK3di-1" vertex="1">
          <mxGeometry x="60" y="270" width="70" height="40" as="geometry" />
        </mxCell>
        <mxCell id="c4qhaEigQeH4QyrQK3di-29" value="&lt;font style=&quot;font-size: 18px;&quot;&gt;Model&lt;/font&gt;" style="text;html=1;align=center;verticalAlign=middle;resizable=0;points=[];autosize=1;strokeColor=none;fillColor=none;fontSize=22;" parent="c4qhaEigQeH4QyrQK3di-1" vertex="1">
          <mxGeometry x="310" y="270" width="70" height="40" as="geometry" />
        </mxCell>
        <mxCell id="c4qhaEigQeH4QyrQK3di-31" value="Option 2" style="strokeWidth=1;shadow=0;dashed=0;align=center;html=1;shape=mxgraph.mockup.forms.comboBox;strokeColor=#999999;fillColor=#ddeeff;align=left;fillColor2=#aaddff;mainText=;fontColor=#666666;fontSize=17;spacingLeft=3;" parent="c4qhaEigQeH4QyrQK3di-1" vertex="1">
          <mxGeometry x="385" y="270" width="140" height="40" as="geometry" />
        </mxCell>
        <mxCell id="c4qhaEigQeH4QyrQK3di-32" value="&lt;span style=&quot;font-size: 18px;&quot;&gt;Year&lt;/span&gt;" style="text;html=1;align=center;verticalAlign=middle;resizable=0;points=[];autosize=1;strokeColor=none;fillColor=none;fontSize=22;" parent="c4qhaEigQeH4QyrQK3di-1" vertex="1">
          <mxGeometry x="560" y="270" width="60" height="40" as="geometry" />
        </mxCell>
        <mxCell id="c4qhaEigQeH4QyrQK3di-33" value="Option 3" style="strokeWidth=1;shadow=0;dashed=0;align=center;html=1;shape=mxgraph.mockup.forms.comboBox;strokeColor=#999999;fillColor=#ddeeff;align=left;fillColor2=#aaddff;mainText=;fontColor=#666666;fontSize=17;spacingLeft=3;" parent="c4qhaEigQeH4QyrQK3di-1" vertex="1">
          <mxGeometry x="620" y="270" width="140" height="40" as="geometry" />
        </mxCell>
        <mxCell id="c4qhaEigQeH4QyrQK3di-34" value="&lt;span style=&quot;font-size: 18px;&quot;&gt;Engine&lt;/span&gt;" style="text;html=1;align=center;verticalAlign=middle;resizable=0;points=[];autosize=1;strokeColor=none;fillColor=none;fontSize=22;" parent="c4qhaEigQeH4QyrQK3di-1" vertex="1">
          <mxGeometry x="800" y="270" width="80" height="40" as="geometry" />
        </mxCell>
        <mxCell id="c4qhaEigQeH4QyrQK3di-35" value="Option 4" style="strokeWidth=1;shadow=0;dashed=0;align=center;html=1;shape=mxgraph.mockup.forms.comboBox;strokeColor=#999999;fillColor=#ddeeff;align=left;fillColor2=#aaddff;mainText=;fontColor=#666666;fontSize=17;spacingLeft=3;" parent="c4qhaEigQeH4QyrQK3di-1" vertex="1">
          <mxGeometry x="880" y="270" width="140" height="40" as="geometry" />
        </mxCell>
        <mxCell id="c4qhaEigQeH4QyrQK3di-36" value="&lt;span style=&quot;font-size: 18px;&quot;&gt;Body&lt;/span&gt;" style="text;html=1;align=center;verticalAlign=middle;resizable=0;points=[];autosize=1;strokeColor=none;fillColor=none;fontSize=22;" parent="c4qhaEigQeH4QyrQK3di-1" vertex="1">
          <mxGeometry x="1070" y="270" width="60" height="40" as="geometry" />
        </mxCell>
        <mxCell id="c4qhaEigQeH4QyrQK3di-37" value="Option 4" style="strokeWidth=1;shadow=0;dashed=0;align=center;html=1;shape=mxgraph.mockup.forms.comboBox;strokeColor=#999999;fillColor=#ddeeff;align=left;fillColor2=#aaddff;mainText=;fontColor=#666666;fontSize=17;spacingLeft=3;" parent="c4qhaEigQeH4QyrQK3di-1" vertex="1">
          <mxGeometry x="1130" y="270" width="140" height="40" as="geometry" />
        </mxCell>
        <mxCell id="c4qhaEigQeH4QyrQK3di-155" value="" style="strokeWidth=1;shadow=0;dashed=0;align=center;html=1;shape=mxgraph.mockup.containers.marginRect2;rectMarginTop=32;strokeColor=#666666;gradientColor=none;fontSize=20;" parent="c4qhaEigQeH4QyrQK3di-1" vertex="1">
          <mxGeometry x="20" y="350" width="1310" height="590" as="geometry" />
        </mxCell>
        <mxCell id="c4qhaEigQeH4QyrQK3di-156" value="Custom Quotes" style="strokeColor=inherit;fillColor=inherit;gradientColor=inherit;strokeWidth=1;shadow=0;dashed=0;align=center;html=1;shape=mxgraph.mockup.containers.rrect;rSize=0;fontSize=17;fontColor=#666666;gradientColor=none;" parent="c4qhaEigQeH4QyrQK3di-155" vertex="1">
          <mxGeometry width="130" height="25" relative="1" as="geometry">
            <mxPoint x="10" as="offset" />
          </mxGeometry>
        </mxCell>
        <mxCell id="c4qhaEigQeH4QyrQK3di-157" value="Immediate Quotes" style="strokeWidth=1;shadow=0;dashed=0;align=center;html=1;shape=mxgraph.mockup.containers.rrect;rSize=0;fontSize=17;fontColor=#ffffff;strokeColor=#008cff;fillColor=#008cff;" parent="c4qhaEigQeH4QyrQK3di-155" vertex="1">
          <mxGeometry width="150" height="25" relative="1" as="geometry">
            <mxPoint x="150" as="offset" />
          </mxGeometry>
        </mxCell>
        <mxCell id="c4qhaEigQeH4QyrQK3di-159" value="" style="strokeWidth=1;shadow=0;dashed=0;align=center;html=1;shape=mxgraph.mockup.containers.topButton;rSize=5;strokeColor=#008cff;fillColor=#008cff;gradientColor=none;resizeWidth=1;movable=0;deletable=1;fontSize=20;" parent="c4qhaEigQeH4QyrQK3di-155" vertex="1">
          <mxGeometry width="1310" height="7" relative="1" as="geometry">
            <mxPoint y="25" as="offset" />
          </mxGeometry>
        </mxCell>
        <mxCell id="c4qhaEigQeH4QyrQK3di-91" value="" style="rounded=0;whiteSpace=wrap;html=1;fontSize=20;" parent="c4qhaEigQeH4QyrQK3di-155" vertex="1">
          <mxGeometry x="45" y="61.64179104477612" width="1020" height="264.17910447761193" as="geometry" />
        </mxCell>
        <mxCell id="c4qhaEigQeH4QyrQK3di-99" value="" style="verticalLabelPosition=bottom;shadow=0;dashed=0;align=center;html=1;verticalAlign=top;strokeWidth=1;shape=mxgraph.mockup.forms.splitter;strokeColor=#999999;fontSize=20;" parent="c4qhaEigQeH4QyrQK3di-155" vertex="1">
          <mxGeometry x="45" y="114.4776119402985" width="1020" height="8.805970149253731" as="geometry" />
        </mxCell>
        <mxCell id="c4qhaEigQeH4QyrQK3di-100" value="&lt;font style=&quot;font-size: 20px;&quot;&gt;#&lt;/font&gt;" style="text;html=1;align=center;verticalAlign=middle;resizable=0;points=[];autosize=1;strokeColor=none;fillColor=none;fontSize=20;" parent="c4qhaEigQeH4QyrQK3di-155" vertex="1">
          <mxGeometry x="55" y="70.44776119402985" width="30" height="40" as="geometry" />
        </mxCell>
        <mxCell id="c4qhaEigQeH4QyrQK3di-101" value="" style="verticalLabelPosition=bottom;shadow=0;dashed=0;align=center;html=1;verticalAlign=top;strokeWidth=1;shape=mxgraph.mockup.markup.line;strokeColor=#999999;direction=north;fontSize=20;" parent="c4qhaEigQeH4QyrQK3di-155" vertex="1">
          <mxGeometry x="85" y="61.64179104477612" width="20" height="264.17910447761193" as="geometry" />
        </mxCell>
        <mxCell id="c4qhaEigQeH4QyrQK3di-102" value="Service/Item Description" style="text;html=1;align=center;verticalAlign=middle;resizable=0;points=[];autosize=1;strokeColor=none;fillColor=none;fontSize=20;" parent="c4qhaEigQeH4QyrQK3di-155" vertex="1">
          <mxGeometry x="115" y="70.44776119402985" width="240" height="40" as="geometry" />
        </mxCell>
        <mxCell id="c4qhaEigQeH4QyrQK3di-103" value="" style="verticalLabelPosition=bottom;shadow=0;dashed=0;align=center;html=1;verticalAlign=top;strokeWidth=1;shape=mxgraph.mockup.markup.line;strokeColor=#999999;direction=north;fontSize=20;" parent="c4qhaEigQeH4QyrQK3di-155" vertex="1">
          <mxGeometry x="540" y="61.64179104477612" width="20" height="264.17910447761193" as="geometry" />
        </mxCell>
        <mxCell id="c4qhaEigQeH4QyrQK3di-104" value="Unit Price" style="text;html=1;align=center;verticalAlign=middle;resizable=0;points=[];autosize=1;strokeColor=none;fillColor=none;fontSize=20;" parent="c4qhaEigQeH4QyrQK3di-155" vertex="1">
          <mxGeometry x="560" y="70.44776119402985" width="110" height="40" as="geometry" />
        </mxCell>
        <mxCell id="c4qhaEigQeH4QyrQK3di-105" value="" style="verticalLabelPosition=bottom;shadow=0;dashed=0;align=center;html=1;verticalAlign=top;strokeWidth=1;shape=mxgraph.mockup.markup.line;strokeColor=#999999;direction=north;fontSize=20;" parent="c4qhaEigQeH4QyrQK3di-155" vertex="1">
          <mxGeometry x="665" y="61.64179104477612" width="20" height="264.17910447761193" as="geometry" />
        </mxCell>
        <mxCell id="c4qhaEigQeH4QyrQK3di-106" value="Quantity" style="text;html=1;align=center;verticalAlign=middle;resizable=0;points=[];autosize=1;strokeColor=none;fillColor=none;fontSize=20;" parent="c4qhaEigQeH4QyrQK3di-155" vertex="1">
          <mxGeometry x="670" y="70.44776119402985" width="100" height="40" as="geometry" />
        </mxCell>
        <mxCell id="c4qhaEigQeH4QyrQK3di-107" value="" style="verticalLabelPosition=bottom;shadow=0;dashed=0;align=center;html=1;verticalAlign=top;strokeWidth=1;shape=mxgraph.mockup.markup.line;strokeColor=#999999;direction=north;fontSize=20;" parent="c4qhaEigQeH4QyrQK3di-155" vertex="1">
          <mxGeometry x="757.5" y="61.64179104477612" width="20" height="264.17910447761193" as="geometry" />
        </mxCell>
        <mxCell id="c4qhaEigQeH4QyrQK3di-108" value="Discount" style="text;html=1;align=center;verticalAlign=middle;resizable=0;points=[];autosize=1;strokeColor=none;fillColor=none;fontSize=20;" parent="c4qhaEigQeH4QyrQK3di-155" vertex="1">
          <mxGeometry x="770" y="70.44776119402985" width="100" height="40" as="geometry" />
        </mxCell>
        <mxCell id="c4qhaEigQeH4QyrQK3di-109" value="" style="verticalLabelPosition=bottom;shadow=0;dashed=0;align=center;html=1;verticalAlign=top;strokeWidth=1;shape=mxgraph.mockup.markup.line;strokeColor=#999999;direction=north;fontSize=20;" parent="c4qhaEigQeH4QyrQK3di-155" vertex="1">
          <mxGeometry x="865" y="61.64179104477612" width="20" height="264.17910447761193" as="geometry" />
        </mxCell>
        <mxCell id="c4qhaEigQeH4QyrQK3di-110" value="Final Price" style="text;html=1;align=center;verticalAlign=middle;resizable=0;points=[];autosize=1;strokeColor=none;fillColor=none;fontSize=20;" parent="c4qhaEigQeH4QyrQK3di-155" vertex="1">
          <mxGeometry x="905" y="70.44776119402985" width="120" height="40" as="geometry" />
        </mxCell>
        <mxCell id="c4qhaEigQeH4QyrQK3di-111" value="1" style="text;html=1;align=center;verticalAlign=middle;resizable=0;points=[];autosize=1;strokeColor=none;fillColor=none;fontSize=20;" parent="c4qhaEigQeH4QyrQK3di-155" vertex="1">
          <mxGeometry x="55" y="167.3134328358209" width="30" height="40" as="geometry" />
        </mxCell>
        <mxCell id="c4qhaEigQeH4QyrQK3di-112" value="Front Brake Pads - OE+ Series" style="text;html=1;align=left;verticalAlign=middle;resizable=0;points=[];autosize=1;strokeColor=none;fillColor=none;fontSize=20;" parent="c4qhaEigQeH4QyrQK3di-155" vertex="1">
          <mxGeometry x="115" y="132.08955223880596" width="300" height="40" as="geometry" />
        </mxCell>
        <mxCell id="c4qhaEigQeH4QyrQK3di-113" value="Front Brake Rotors - Economic Series" style="text;html=1;align=left;verticalAlign=middle;resizable=0;points=[];autosize=1;strokeColor=none;fillColor=none;fontSize=20;" parent="c4qhaEigQeH4QyrQK3di-155" vertex="1">
          <mxGeometry x="115" y="176.11940298507463" width="360" height="40" as="geometry" />
        </mxCell>
        <mxCell id="c4qhaEigQeH4QyrQK3di-114" value="Front Brakes Replacement" style="text;html=1;align=left;verticalAlign=middle;resizable=0;points=[];autosize=1;strokeColor=none;fillColor=none;fontSize=20;" parent="c4qhaEigQeH4QyrQK3di-155" vertex="1">
          <mxGeometry x="115" y="220.1492537313433" width="260" height="40" as="geometry" />
        </mxCell>
        <mxCell id="c4qhaEigQeH4QyrQK3di-115" value="$80.69" style="text;html=1;align=center;verticalAlign=middle;resizable=0;points=[];autosize=1;strokeColor=none;fillColor=none;fontSize=20;" parent="c4qhaEigQeH4QyrQK3di-155" vertex="1">
          <mxGeometry x="575" y="132.08955223880596" width="80" height="40" as="geometry" />
        </mxCell>
        <mxCell id="c4qhaEigQeH4QyrQK3di-116" value="$120.69" style="text;html=1;align=center;verticalAlign=middle;resizable=0;points=[];autosize=1;strokeColor=none;fillColor=none;fontSize=20;" parent="c4qhaEigQeH4QyrQK3di-155" vertex="1">
          <mxGeometry x="565" y="176.11940298507463" width="100" height="40" as="geometry" />
        </mxCell>
        <mxCell id="c4qhaEigQeH4QyrQK3di-117" value="$125.00" style="text;html=1;align=center;verticalAlign=middle;resizable=0;points=[];autosize=1;strokeColor=none;fillColor=none;fontSize=20;" parent="c4qhaEigQeH4QyrQK3di-155" vertex="1">
          <mxGeometry x="565" y="220.1492537313433" width="100" height="40" as="geometry" />
        </mxCell>
        <mxCell id="c4qhaEigQeH4QyrQK3di-118" value="1" style="text;html=1;align=center;verticalAlign=middle;resizable=0;points=[];autosize=1;strokeColor=none;fillColor=none;fontSize=20;" parent="c4qhaEigQeH4QyrQK3di-155" vertex="1">
          <mxGeometry x="705" y="132.08955223880596" width="30" height="40" as="geometry" />
        </mxCell>
        <mxCell id="c4qhaEigQeH4QyrQK3di-119" value="2" style="text;html=1;align=center;verticalAlign=middle;resizable=0;points=[];autosize=1;strokeColor=none;fillColor=none;fontSize=20;" parent="c4qhaEigQeH4QyrQK3di-155" vertex="1">
          <mxGeometry x="705" y="176.11940298507463" width="30" height="40" as="geometry" />
        </mxCell>
        <mxCell id="c4qhaEigQeH4QyrQK3di-120" value="2" style="text;html=1;align=center;verticalAlign=middle;resizable=0;points=[];autosize=1;strokeColor=none;fillColor=none;fontSize=20;" parent="c4qhaEigQeH4QyrQK3di-155" vertex="1">
          <mxGeometry x="705" y="220.1492537313433" width="30" height="40" as="geometry" />
        </mxCell>
        <mxCell id="c4qhaEigQeH4QyrQK3di-121" value="$0.00" style="text;html=1;align=center;verticalAlign=middle;resizable=0;points=[];autosize=1;strokeColor=none;fillColor=none;fontSize=20;" parent="c4qhaEigQeH4QyrQK3di-155" vertex="1">
          <mxGeometry x="790" y="132.08955223880596" width="70" height="40" as="geometry" />
        </mxCell>
        <mxCell id="c4qhaEigQeH4QyrQK3di-122" value="$20.69" style="text;html=1;align=center;verticalAlign=middle;resizable=0;points=[];autosize=1;strokeColor=none;fillColor=none;fontSize=20;" parent="c4qhaEigQeH4QyrQK3di-155" vertex="1">
          <mxGeometry x="780" y="176.11940298507463" width="80" height="40" as="geometry" />
        </mxCell>
        <mxCell id="c4qhaEigQeH4QyrQK3di-123" value="$0.00" style="text;html=1;align=center;verticalAlign=middle;resizable=0;points=[];autosize=1;strokeColor=none;fillColor=none;fontSize=20;" parent="c4qhaEigQeH4QyrQK3di-155" vertex="1">
          <mxGeometry x="790" y="220.1492537313433" width="70" height="40" as="geometry" />
        </mxCell>
        <mxCell id="c4qhaEigQeH4QyrQK3di-124" value="$80.69" style="text;html=1;align=center;verticalAlign=middle;resizable=0;points=[];autosize=1;strokeColor=none;fillColor=none;fontSize=20;" parent="c4qhaEigQeH4QyrQK3di-155" vertex="1">
          <mxGeometry x="925" y="132.08955223880596" width="80" height="40" as="geometry" />
        </mxCell>
        <mxCell id="c4qhaEigQeH4QyrQK3di-125" value="$100.00" style="text;html=1;align=center;verticalAlign=middle;resizable=0;points=[];autosize=1;strokeColor=none;fillColor=none;fontSize=20;" parent="c4qhaEigQeH4QyrQK3di-155" vertex="1">
          <mxGeometry x="915" y="176.11940298507463" width="100" height="40" as="geometry" />
        </mxCell>
        <mxCell id="c4qhaEigQeH4QyrQK3di-126" value="$125.00" style="text;html=1;align=center;verticalAlign=middle;resizable=0;points=[];autosize=1;strokeColor=none;fillColor=none;fontSize=20;" parent="c4qhaEigQeH4QyrQK3di-155" vertex="1">
          <mxGeometry x="915" y="220.1492537313433" width="100" height="40" as="geometry" />
        </mxCell>
        <mxCell id="c4qhaEigQeH4QyrQK3di-131" value="Options" style="strokeWidth=1;shadow=0;dashed=0;align=center;html=1;shape=mxgraph.mockup.forms.comboBox;strokeColor=#999999;fillColor=#ddeeff;align=left;fillColor2=#aaddff;mainText=;fontColor=#666666;fontSize=17;spacingLeft=3;" parent="c4qhaEigQeH4QyrQK3di-155" vertex="1">
          <mxGeometry x="1079" y="132.08955223880596" width="96" height="35.223880597014926" as="geometry" />
        </mxCell>
        <mxCell id="c4qhaEigQeH4QyrQK3di-132" value="Options" style="strokeWidth=1;shadow=0;dashed=0;align=center;html=1;shape=mxgraph.mockup.forms.comboBox;strokeColor=#999999;fillColor=#ddeeff;align=left;fillColor2=#aaddff;mainText=;fontColor=#666666;fontSize=17;spacingLeft=3;" parent="c4qhaEigQeH4QyrQK3di-155" vertex="1">
          <mxGeometry x="1079" y="176.11940298507463" width="96" height="35.223880597014926" as="geometry" />
        </mxCell>
        <mxCell id="c4qhaEigQeH4QyrQK3di-136" value="Delete" style="strokeWidth=1;shadow=0;dashed=0;align=center;html=1;shape=mxgraph.mockup.buttons.button;strokeColor=#666666;fontColor=#ffffff;mainText=;buttonStyle=round;fontSize=17;fontStyle=1;fillColor=#FF0000;whiteSpace=wrap;" parent="c4qhaEigQeH4QyrQK3di-155" vertex="1">
          <mxGeometry x="1185" y="224.55223880597015" width="100" height="26.417910447761194" as="geometry" />
        </mxCell>
        <mxCell id="c4qhaEigQeH4QyrQK3di-137" value="Delete" style="strokeWidth=1;shadow=0;dashed=0;align=center;html=1;shape=mxgraph.mockup.buttons.button;strokeColor=#666666;fontColor=#ffffff;mainText=;buttonStyle=round;fontSize=17;fontStyle=1;fillColor=#FF0000;whiteSpace=wrap;" parent="c4qhaEigQeH4QyrQK3di-155" vertex="1">
          <mxGeometry x="1185" y="136.49253731343285" width="100" height="26.417910447761194" as="geometry" />
        </mxCell>
        <mxCell id="c4qhaEigQeH4QyrQK3di-138" value="Delete" style="strokeWidth=1;shadow=0;dashed=0;align=center;html=1;shape=mxgraph.mockup.buttons.button;strokeColor=#666666;fontColor=#ffffff;mainText=;buttonStyle=round;fontSize=17;fontStyle=1;fillColor=#FF0000;whiteSpace=wrap;" parent="c4qhaEigQeH4QyrQK3di-155" vertex="1">
          <mxGeometry x="1185" y="180.52238805970148" width="100" height="26.417910447761194" as="geometry" />
        </mxCell>
        <mxCell id="c4qhaEigQeH4QyrQK3di-139" value="" style="verticalLabelPosition=bottom;shadow=0;dashed=0;align=center;html=1;verticalAlign=top;strokeWidth=1;shape=mxgraph.mockup.markup.line;strokeColor=#999999;fontSize=20;fillColor=#FF0000;" parent="c4qhaEigQeH4QyrQK3di-155" vertex="1">
          <mxGeometry x="45" y="268.5820895522388" width="1020" height="17.611940298507463" as="geometry" />
        </mxCell>
        <mxCell id="c4qhaEigQeH4QyrQK3di-140" value="2" style="text;html=1;align=center;verticalAlign=middle;resizable=0;points=[];autosize=1;strokeColor=none;fillColor=none;fontSize=20;" parent="c4qhaEigQeH4QyrQK3di-155" vertex="1">
          <mxGeometry x="55" y="286.1940298507463" width="30" height="40" as="geometry" />
        </mxCell>
        <mxCell id="c4qhaEigQeH4QyrQK3di-141" value="Price" style="text;html=1;align=right;verticalAlign=middle;resizable=0;points=[];autosize=1;strokeColor=none;fillColor=none;fontSize=20;" parent="c4qhaEigQeH4QyrQK3di-155" vertex="1">
          <mxGeometry x="802.5" y="325.82089552238807" width="70" height="40" as="geometry" />
        </mxCell>
        <mxCell id="c4qhaEigQeH4QyrQK3di-142" value="Tax" style="text;html=1;align=right;verticalAlign=middle;resizable=0;points=[];autosize=1;strokeColor=none;fillColor=none;fontSize=20;" parent="c4qhaEigQeH4QyrQK3di-155" vertex="1">
          <mxGeometry x="822.5" y="361.04477611940297" width="50" height="40" as="geometry" />
        </mxCell>
        <mxCell id="c4qhaEigQeH4QyrQK3di-143" value="Total Price" style="text;html=1;align=right;verticalAlign=middle;resizable=0;points=[];autosize=1;strokeColor=none;fillColor=none;fontSize=20;" parent="c4qhaEigQeH4QyrQK3di-155" vertex="1">
          <mxGeometry x="752.5" y="396.2686567164179" width="120" height="40" as="geometry" />
        </mxCell>
        <mxCell id="c4qhaEigQeH4QyrQK3di-144" value="$305.69" style="text;html=1;align=left;verticalAlign=middle;resizable=0;points=[];autosize=1;strokeColor=none;fillColor=none;fontSize=20;" parent="c4qhaEigQeH4QyrQK3di-155" vertex="1">
          <mxGeometry x="897.5" y="325.82089552238807" width="100" height="40" as="geometry" />
        </mxCell>
        <mxCell id="c4qhaEigQeH4QyrQK3di-145" value="$40" style="text;html=1;align=left;verticalAlign=middle;resizable=0;points=[];autosize=1;strokeColor=none;fillColor=none;fontSize=20;" parent="c4qhaEigQeH4QyrQK3di-155" vertex="1">
          <mxGeometry x="897.5" y="361.04477611940297" width="60" height="40" as="geometry" />
        </mxCell>
        <mxCell id="c4qhaEigQeH4QyrQK3di-146" value="$345.69" style="text;html=1;align=left;verticalAlign=middle;resizable=0;points=[];autosize=1;strokeColor=none;fillColor=none;fontSize=20;" parent="c4qhaEigQeH4QyrQK3di-155" vertex="1">
          <mxGeometry x="897.5" y="396.2686567164179" width="100" height="40" as="geometry" />
        </mxCell>
        <mxCell id="c4qhaEigQeH4QyrQK3di-148" value="Add Service" style="strokeWidth=1;shadow=0;dashed=0;align=center;html=1;shape=mxgraph.mockup.buttons.button;strokeColor=#666666;fontColor=#ffffff;mainText=;buttonStyle=round;fontSize=17;fontStyle=1;fillColor=#008cff;whiteSpace=wrap;" parent="c4qhaEigQeH4QyrQK3di-155" vertex="1">
          <mxGeometry x="915" y="449.1044776119403" width="150" height="44.02985074626866" as="geometry" />
        </mxCell>
        <mxCell id="c4qhaEigQeH4QyrQK3di-149" value="Category" style="strokeWidth=1;shadow=0;dashed=0;align=center;html=1;shape=mxgraph.mockup.forms.comboBox;strokeColor=#999999;fillColor=#ddeeff;align=left;fillColor2=#aaddff;mainText=;fontColor=#666666;fontSize=17;spacingLeft=3;" parent="c4qhaEigQeH4QyrQK3di-155" vertex="1">
          <mxGeometry x="45" y="457.910447761194" width="200" height="35.223880597014926" as="geometry" />
        </mxCell>
        <mxCell id="c4qhaEigQeH4QyrQK3di-150" value="Sub-Category" style="strokeWidth=1;shadow=0;dashed=0;align=center;html=1;shape=mxgraph.mockup.forms.comboBox;strokeColor=#999999;fillColor=#ddeeff;align=left;fillColor2=#aaddff;mainText=;fontColor=#666666;fontSize=17;spacingLeft=3;" parent="c4qhaEigQeH4QyrQK3di-155" vertex="1">
          <mxGeometry x="345" y="457.910447761194" width="200" height="35.223880597014926" as="geometry" />
        </mxCell>
        <mxCell id="c4qhaEigQeH4QyrQK3di-151" value="Service Category" style="strokeWidth=1;shadow=0;dashed=0;align=center;html=1;shape=mxgraph.mockup.forms.comboBox;strokeColor=#999999;fillColor=#ddeeff;align=left;fillColor2=#aaddff;mainText=;fontColor=#666666;fontSize=17;spacingLeft=3;" parent="c4qhaEigQeH4QyrQK3di-155" vertex="1">
          <mxGeometry x="625" y="457.910447761194" width="200" height="35.223880597014926" as="geometry" />
        </mxCell>
        <mxCell id="c4qhaEigQeH4QyrQK3di-152" value="&lt;font style=&quot;font-size: 18px;&quot;&gt;Service Category&lt;/font&gt;" style="text;html=1;align=left;verticalAlign=middle;resizable=0;points=[];autosize=1;strokeColor=none;fillColor=none;fontSize=22;" parent="c4qhaEigQeH4QyrQK3di-155" vertex="1">
          <mxGeometry x="25" y="422.6865671641791" width="160" height="40" as="geometry" />
        </mxCell>
        <mxCell id="c4qhaEigQeH4QyrQK3di-153" value="&lt;font style=&quot;font-size: 18px;&quot;&gt;Service Sub-Category&lt;/font&gt;" style="text;html=1;align=left;verticalAlign=middle;resizable=0;points=[];autosize=1;strokeColor=none;fillColor=none;fontSize=22;" parent="c4qhaEigQeH4QyrQK3di-155" vertex="1">
          <mxGeometry x="315" y="422.6865671641791" width="200" height="40" as="geometry" />
        </mxCell>
        <mxCell id="c4qhaEigQeH4QyrQK3di-154" value="&lt;font style=&quot;font-size: 18px;&quot;&gt;Options&lt;/font&gt;" style="text;html=1;align=left;verticalAlign=middle;resizable=0;points=[];autosize=1;strokeColor=none;fillColor=none;fontSize=22;" parent="c4qhaEigQeH4QyrQK3di-155" vertex="1">
          <mxGeometry x="595" y="422.6865671641791" width="90" height="40" as="geometry" />
        </mxCell>
        <mxCell id="c4qhaEigQeH4QyrQK3di-170" value="&lt;font color=&quot;#0f0f0f&quot;&gt;Book an Appointment&lt;/font&gt;" style="strokeWidth=1;shadow=0;dashed=0;align=center;html=1;shape=mxgraph.mockup.buttons.button;strokeColor=#666666;fontColor=#ffffff;mainText=;buttonStyle=round;fontSize=17;fontStyle=1;fillColor=#66FF66;whiteSpace=wrap;" parent="c4qhaEigQeH4QyrQK3di-1" vertex="1">
          <mxGeometry x="1100" y="960" width="230" height="70" as="geometry" />
        </mxCell>
      </root>
    </mxGraphModel>
  </diagram>
</mxfile>
